HIERARCHY
ROOT Root
{
  OFFSET 0.0 0.0 0.0
  CHANNELS 6 Xposition Yposition Zposition Zrotation Yrotation Xrotation
  JOINT Hips
  {
    OFFSET 0.0 100.0 0.0
    CHANNELS 6 Xposition Yposition Zposition Zrotation Yrotation Xrotation
    JOINT Spine1
    {
      OFFSET 5.003913 -0.037094 -0.013727
      CHANNELS 3 Zrotation Yrotation Xrotation
      JOINT Spine2
      {
        OFFSET 7.125363 -1e-06 0.0
        CHANNELS 3 Zrotation Yrotation Xrotation
        JOINT Chest
        {
          OFFSET 7.594027 1e-06 0.0
          CHANNELS 3 Zrotation Yrotation Xrotation
          JOINT Neck1
          {
            OFFSET 26.313086 -0.460272 -0.181672
            CHANNELS 3 Zrotation Yrotation Xrotation
            JOINT Neck2
            {
              OFFSET 8.045911 0.0 0.0
              CHANNELS 3 Zrotation Yrotation Xrotation
              JOINT Head
              {
                OFFSET 6.432774 0.0 0.0
                CHANNELS 3 Zrotation Yrotation Xrotation
                JOINT HeadEnd
                {
                  OFFSET 16.169773 0.06451 0.00362
                  CHANNELS 3 Zrotation Yrotation Xrotation
                }
                JOINT Jaw
                {
                  OFFSET 0.108741 3.12938 0.002639
                  CHANNELS 3 Zrotation Yrotation Xrotation
                }
                JOINT LeftEye
                {
                  OFFSET 4.45173 8.166359 3.206392
                  CHANNELS 3 Zrotation Yrotation Xrotation
                }
                JOINT RightEye
                {
                  OFFSET 4.436895 8.135758 -3.222429
                  CHANNELS 3 Zrotation Yrotation Xrotation
                }
              }
            }
          }
          JOINT LeftShoulder
          {
            OFFSET 23.218927 5.195579 1.621656
            CHANNELS 3 Zrotation Yrotation Xrotation
            JOINT LeftArm
            {
              OFFSET 15.902118 2e-06 -2e-06
              CHANNELS 3 Zrotation Yrotation Xrotation
              JOINT LeftForeArm
              {
                OFFSET 28.739307 0.0 -1e-06
                CHANNELS 3 Zrotation Yrotation Xrotation
                JOINT LeftHand
                {
                  OFFSET 27.093981 -4e-06 0.0
                  CHANNELS 3 Zrotation Yrotation Xrotation
                  JOINT LeftHandThumb1
                  {
                    OFFSET 2.276781 3.380274 0.83384
                    CHANNELS 3 Zrotation Yrotation Xrotation
                    JOINT LeftHandThumb2
                    {
                      OFFSET 4.705309 -1e-06 -1e-06
                      CHANNELS 3 Zrotation Yrotation Xrotation
                      JOINT LeftHandThumb3
                      {
                        OFFSET 2.798515 0.0 3e-06
                        CHANNELS 3 Zrotation Yrotation Xrotation
                        JOINT LeftHandThumbEnd
                        {
                          OFFSET 3.180793 4e-06 -4e-06
                          CHANNELS 3 Zrotation Yrotation Xrotation
                        }
                      }
                    }
                  }
                  JOINT LeftHandIndex1
                  {
                    OFFSET 3.247786 2.352677 0.137192
                    CHANNELS 3 Zrotation Yrotation Xrotation
                    JOINT LeftHandIndex2
                    {
                      OFFSET 6.367095 1e-06 0.0
                      CHANNELS 3 Zrotation Yrotation Xrotation
                      JOINT LeftHandIndex3
                      {
                        OFFSET 3.662364 0.0 0.0
                        CHANNELS 3 Zrotation Yrotation Xrotation
                        JOINT LeftHandIndex4
                        {
                          OFFSET 2.329242 4e-06 -4e-06
                          CHANNELS 3 Zrotation Yrotation Xrotation
                          JOINT LeftHandIndexEnd
                          {
                            OFFSET 2.767823 1e-06 0.0
                            CHANNELS 3 Zrotation Yrotation Xrotation
                          }
                        }
                      }
                    }
                  }
                  JOINT LeftHandMiddle1
                  {
                    OFFSET 3.163612 0.945023 -0.406112
                    CHANNELS 3 Zrotation Yrotation Xrotation
                    JOINT LeftHandMiddle2
                    {
                      OFFSET 6.276789 3e-06 0.0
                      CHANNELS 3 Zrotation Yrotation Xrotation
                      JOINT LeftHandMiddle3
                      {
                        OFFSET 4.35652 -1e-06 4e-06
                        CHANNELS 3 Zrotation Yrotation Xrotation
                        JOINT LeftHandMiddle4
                        {
                          OFFSET 2.996877 0.0 8e-06
                          CHANNELS 3 Zrotation Yrotation Xrotation
                          JOINT LeftHandMiddleEnd
                          {
                            OFFSET 2.323256 3e-06 -4e-06
                            CHANNELS 3 Zrotation Yrotation Xrotation
                          }
                        }
                      }
                    }
                  }
                  JOINT LeftHandRing1
                  {
                    OFFSET 2.882606 -0.309162 0.107445
                    CHANNELS 3 Zrotation Yrotation Xrotation
                    JOINT LeftHandRing2
                    {
                      OFFSET 6.033198 0.0 4e-06
                      CHANNELS 3 Zrotation Yrotation Xrotation
                      JOINT LeftHandRing3
                      {
                        OFFSET 4.350578 3e-06 0.0
                        CHANNELS 3 Zrotation Yrotation Xrotation
                        JOINT LeftHandRing4
                        {
                          OFFSET 2.651321 2e-06 -7e-06
                          CHANNELS 3 Zrotation Yrotation Xrotation
                          JOINT LeftHandRingEnd
                          {
                            OFFSET 1.937663 1e-06 -4e-06
                            CHANNELS 3 Zrotation Yrotation Xrotation
                          }
                        }
                      }
                    }
                  }
                  JOINT LeftHandPinky1
                  {
                    OFFSET 2.865315 -1.525436 0.575687
                    CHANNELS 3 Zrotation Yrotation Xrotation
                    JOINT LeftHandPinky2
                    {
                      OFFSET 5.54936 1e-06 -8e-06
                      CHANNELS 3 Zrotation Yrotation Xrotation
                      JOINT LeftHandPinky3
                      {
                        OFFSET 3.070974 0.0 -4e-06
                        CHANNELS 3 Zrotation Yrotation Xrotation
                        JOINT LeftHandPinky4
                        {
                          OFFSET 1.549672 1e-06 0.0
                          CHANNELS 3 Zrotation Yrotation Xrotation
                          JOINT LeftHandPinkyEnd
                          {
                            OFFSET 1.952123 0.0 0.0
                            CHANNELS 3 Zrotation Yrotation Xrotation
                          }
                        }
                      }
                    }
                  }
                }
              }
            }
          }
          JOINT RightShoulder
          {
            OFFSET 23.161716 5.296122 -1.380114
            CHANNELS 3 Zrotation Yrotation Xrotation
            JOINT RightArm
            {
              OFFSET -16.027195 -2e-06 1.1e-05
              CHANNELS 3 Zrotation Yrotation Xrotation
              JOINT RightForeArm
              {
                OFFSET -28.736639 4e-06 2e-06
                CHANNELS 3 Zrotation Yrotation Xrotation
                JOINT RightHand
                {
                  OFFSET -27.133619 6e-06 0.0
                  CHANNELS 3 Zrotation Yrotation Xrotation
                  JOINT RightHandThumb1
                  {
                    OFFSET -2.274328 -3.351035 -0.83067
                    CHANNELS 3 Zrotation Yrotation Xrotation
                    JOINT RightHandThumb2
                    {
                      OFFSET -4.703594 -3e-06 2e-06
                      CHANNELS 3 Zrotation Yrotation Xrotation
                      JOINT RightHandThumb3
                      {
                        OFFSET -2.794935 -4e-06 -3e-06
                        CHANNELS 3 Zrotation Yrotation Xrotation
                        JOINT RightHandThumbEnd
                        {
                          OFFSET -3.183852 4e-06 1e-06
                          CHANNELS 3 Zrotation Yrotation Xrotation
                        }
                      }
                    }
                  }
                  JOINT RightHandIndex1
                  {
                    OFFSET -3.253496 -2.33755 -0.127667
                    CHANNELS 3 Zrotation Yrotation Xrotation
                    JOINT RightHandIndex2
                    {
                      OFFSET -6.344434 0.0 0.0
                      CHANNELS 3 Zrotation Yrotation Xrotation
                      JOINT RightHandIndex3
                      {
                        OFFSET -3.654871 0.0 -8e-06
                        CHANNELS 3 Zrotation Yrotation Xrotation
                        JOINT RightHandIndex4
                        {
                          OFFSET -2.327586 -1e-06 0.0
                          CHANNELS 3 Zrotation Yrotation Xrotation
                          JOINT RightHandIndexEnd
                          {
                            OFFSET -2.770001 3e-06 8e-06
                            CHANNELS 3 Zrotation Yrotation Xrotation
                          }
                        }
                      }
                    }
                  }
                  JOINT RightHandMiddle1
                  {
                    OFFSET -3.168223 -0.944764 0.411762
                    CHANNELS 3 Zrotation Yrotation Xrotation
                    JOINT RightHandMiddle2
                    {
                      OFFSET -6.266691 -1e-06 -4e-06
                      CHANNELS 3 Zrotation Yrotation Xrotation
                      JOINT RightHandMiddle3
                      {
                        OFFSET -4.348901 0.0 0.0
                        CHANNELS 3 Zrotation Yrotation Xrotation
                        JOINT RightHandMiddle4
                        {
                          OFFSET -3.00024 2e-06 -4e-06
                          CHANNELS 3 Zrotation Yrotation Xrotation
                          JOINT RightHandMiddleEnd
                          {
                            OFFSET -2.321477 -4e-06 -4e-06
                            CHANNELS 3 Zrotation Yrotation Xrotation
                          }
                        }
                      }
                    }
                  }
                  JOINT RightHandRing1
                  {
                    OFFSET -2.885654 0.293261 -0.119232
                    CHANNELS 3 Zrotation Yrotation Xrotation
                    JOINT RightHandRing2
                    {
                      OFFSET -6.032835 -1e-06 -4e-06
                      CHANNELS 3 Zrotation Yrotation Xrotation
                      JOINT RightHandRing3
                      {
                        OFFSET -4.33881 0.0 -4e-06
                        CHANNELS 3 Zrotation Yrotation Xrotation
                        JOINT RightHandRing4
                        {
                          OFFSET -2.654903 -4e-06 -4e-06
                          CHANNELS 3 Zrotation Yrotation Xrotation
                          JOINT RightHandRingEnd
                          {
                            OFFSET -1.935122 0.0 4e-06
                            CHANNELS 3 Zrotation Yrotation Xrotation
                          }
                        }
                      }
                    }
                  }
                  JOINT RightHandPinky1
                  {
                    OFFSET -2.866241 1.503904 -0.60527
                    CHANNELS 3 Zrotation Yrotation Xrotation
                    JOINT RightHandPinky2
                    {
                      OFFSET -5.553177 -2e-06 0.0
                      CHANNELS 3 Zrotation Yrotation Xrotation
                      JOINT RightHandPinky3
                      {
                        OFFSET -3.062664 -1e-06 -4e-06
                        CHANNELS 3 Zrotation Yrotation Xrotation
                        JOINT RightHandPinky4
                        {
                          OFFSET -1.546529 2e-06 4e-06
                          CHANNELS 3 Zrotation Yrotation Xrotation
                          JOINT RightHandPinkyEnd
                          {
                            OFFSET -1.952341 0.0 -4e-06
                            CHANNELS 3 Zrotation Yrotation Xrotation
                          }
                        }
                      }
                    }
                  }
                }
              }
            }
          }
        }
      }
    }
    JOINT LeftLeg
    {
      OFFSET -8.443107 2.567604 10.043214
      CHANNELS 3 Zrotation Yrotation Xrotation
      JOINT LeftShin
      {
        OFFSET 43.229198 1e-06 -1e-06
        CHANNELS 3 Zrotation Yrotation Xrotation
        JOINT LeftFoot
        {
          OFFSET 42.298611 1e-06 1e-06
          CHANNELS 3 Zrotation Yrotation Xrotation
          JOINT LeftToeBase
          {
            OFFSET 14.165858 1e-06 0.0
            CHANNELS 3 Zrotation Yrotation Xrotation
            JOINT LeftToeEnd
            {
              OFFSET 6.7141 -0.234461 0.0
              CHANNELS 3 Zrotation Yrotation Xrotation
            }
          }
        }
      }
    }
    JOINT RightLeg
    {
      OFFSET -8.303923 2.592729 -10.047278
      CHANNELS 3 Zrotation Yrotation Xrotation
      JOINT RightShin
      {
        OFFSET -43.369682 0.0 1e-06
        CHANNELS 3 Zrotation Yrotation Xrotation
        JOINT RightFoot
        {
          OFFSET -42.260784 4e-06 2e-06
          CHANNELS 3 Zrotation Yrotation Xrotation
          JOINT RightToeBase
          {
            OFFSET -14.222245 -2e-06 -1e-06
            CHANNELS 3 Zrotation Yrotation Xrotation
            JOINT RightToeEnd
            {
              OFFSET -6.660062 0.232574 -2e-06
              CHANNELS 3 Zrotation Yrotation Xrotation
            }
          }
        }
      }
    }
  }
}
MOTION
Frames: 5
Frame Time: 0.03333333333333333
0.0 0.0 0.0 0.0 -0.0 0.0 -2.240321 99.429626 -1.037148 91.678436 0.334744 89.921211 -5.022341 0.656467 -0.11402 -12.717898 -0.368685 0.512461 19.179987 -1.865403 -2.409923 16.068756 -0.856616 2.29894 -2.590244 -0.799041 -2.899107 -26.816822 1.207771 -5.925971 6e-06 0.0 0.0 -0.03801 0.020445 0.030628 0.058634 0.07178 0.044618 0.027176 -0.03173 0.020068 -126.809769 -68.057404 143.276245 29.288204 -49.970062 9.507405 57.437386 1.06667 0.77337 -8.355742 -1.631581 -2.930563 17.636623 -26.322723 52.411182 -19.466665 -14.395597 29.410393 -0.0 -8.774819 -1e-06 15.383562 -18.184454 6.459177 -0.609776 -1.795654 -3.889328 -4.80709 -11.046813 -2.937851 7e-06 -20.976015 -3e-06 -5.019966 -25.03356 -4.031882 7e-06 0.0 0.0 -10.634536 -5.686973 -3.565587 10.573271 -17.922951 -3.113899 3e-06 -13.821205 -2e-06 -0.501776 -31.181501 -4.027017 -11.577928 -58.967915 7.306327 -13.982712 -7.150198 -2.875041 13.772727 -8.401491 -3.218243 0.347735 -34.211552 0.771651 -0.963028 -17.733372 2.621019 -2e-06 1e-06 -1e-06 -17.346416 -20.095217 -4.201782 21.757557 -1.638374 3.866425 2e-06 -6.338824 1e-06 -1.697588 -22.591743 -6.194008 -1e-06 -2e-06 -1e-06 57.559502 -75.964958 138.93869 35.366154 -55.465702 3.443145 49.52747 -0.49429 0.269965 -3.108818 -15.133442 -11.216261 22.182108 -20.375879 49.933308 -16.701803 -16.743528 28.476519 -3e-06 -12.6906 -1e-06 16.178806 -18.020834 2.879117 -0.105921 -1.513856 -4.275881 -5.039041 -5.612868 -2.953556 4e-06 -11.02052 -3e-06 -6.111298 -15.895328 -3.84047 -0.0 -4e-06 -3e-06 -10.283369 -5.680287 -4.341837 11.028288 -11.302399 -2.372631 -1.384268 -14.238575 -6.320122 -0.625437 -26.924175 -3.827601 -4.137805 -50.020496 -3.92486 -13.708524 -7.363476 -3.720939 18.141148 -14.052732 -3.242674 6e-06 -18.787266 -4e-06 -0.429712 -8.456039 2.555504 0.0 -1e-06 -2e-06 -15.923538 -20.094479 -5.473583 30.41921 -7.190823 1.735927 2e-06 -8.162922 -0.0 -1.861903 -22.861462 -6.167941 0.0 -4e-06 -1e-06 174.619003 -2.52991 -15.787031 18.60833 0.007212 0.104177 -81.207085 3.401293 -1.120012 -5.325841 1.382332 2.102169 -0.999999 0.0 -0.0 -4.073375 -7.066198 -6.558403 19.849474 -0.043582 0.139085 -83.998878 1.746454 -5.297343 -5.001832 0.783547 1.73525 -1.000001 -0.0 0.0 
0.0 0.0 0.0 0.0 -0.0 0.0 -2.194649 99.437698 -1.045449 91.715179 0.466572 89.961586 -5.006786 0.645003 -0.136119 -12.668064 -0.34234 0.440045 19.026026 -1.942959 -2.454514 16.150122 -0.764708 2.327805 -2.583865 -0.749587 -2.909011 -26.705141 1.19631 -5.947859 6e-06 0.0 1e-06 -0.043337 0.015559 0.045989 0.073893 0.062538 0.06087 0.036942 -0.031849 0.034326 -127.083267 -68.299294 143.42247 31.289244 -49.842529 4.23443 60.596031 1.050002 0.639614 -8.328265 -0.784833 -4.479055 17.636633 -26.322735 52.411201 -19.46666 -14.395598 29.410395 1e-06 -8.774824 -2e-06 15.413158 -18.287493 6.406646 -0.609777 -1.795653 -3.889327 -4.807089 -11.046809 -2.937852 1e-06 -20.976019 2e-06 -5.019974 -25.03356 -4.031881 6e-06 0.0 2e-06 -10.634535 -5.686973 -3.565589 10.573276 -17.922951 -3.113899 0.0 -13.821206 -0.0 -0.50178 -31.181501 -4.027016 -11.752227 -58.939323 7.371396 -13.982714 -7.150198 -2.875044 13.772731 -8.401492 -3.21824 0.347731 -34.211555 0.771658 -0.963032 -17.73337 2.62102 0.0 0.0 -1e-06 -17.346422 -20.095217 -4.201784 21.757557 -1.638375 3.866428 -1e-06 -6.338822 1e-06 -1.697588 -22.591742 -6.194006 -0.0 -1e-06 -3e-06 57.807156 -76.277214 138.631653 33.761646 -53.642857 2.650101 54.147747 -0.325646 0.346073 -3.732561 -15.603446 -11.233953 22.182106 -20.375895 49.933319 -16.701807 -16.74353 28.476528 -2e-06 -12.690598 -1e-06 16.104994 -18.0341 2.905107 -0.105918 -1.513855 -4.275881 -5.039042 -5.612871 -2.953557 2e-06 -11.020523 -0.0 -6.111297 -15.89533 -3.840469 2e-06 -4e-06 1e-06 -10.283366 -5.680286 -4.341837 11.028292 -11.302402 -2.372633 -1.384269 -14.238575 -6.32012 -0.625439 -26.924183 -3.827602 -4.098067 -50.1987 -3.936123 -13.708518 -7.363472 -3.720936 18.141146 -14.052734 -3.242676 5e-06 -18.78727 -2e-06 -0.429714 -8.456038 2.555506 0.0 1e-06 0.0 -15.923532 -20.094479 -5.473582 30.41921 -7.190823 1.735924 2e-06 -8.162925 -3e-06 -1.861905 -22.861464 -6.167937 -0.0 -3e-06 -0.0 174.832962 -2.448441 -15.865227 18.44689 0.007092 0.126149 -81.137779 3.666806 -1.106485 -5.431513 1.445107 2.117746 -0.999999 0.0 -0.0 -3.873767 -7.13895 -6.579731 19.744774 -0.029325 0.149616 -83.956795 1.769019 -5.369076 -5.018337 0.771701 1.739165 -1.000001 -0.0 0.0 
0.0 0.0 0.0 0.0 -0.0 0.0 -2.124761 99.423866 -1.081897 91.743515 0.561886 90.07428 -5.057662 0.622045 -0.141124 -12.659584 -0.339224 0.38109 18.89813 -1.969457 -2.478351 16.310289 -0.632699 2.362004 -2.592442 -0.737951 -2.901194 -26.285547 1.24331 -5.936482 7e-06 -0.0 0.0 -0.042019 0.012345 0.0407 0.06958 0.052943 0.058445 0.037481 -0.029077 0.02613 -127.587952 -68.741318 143.688232 33.658855 -49.543922 -2.294249 63.68948 0.820934 0.423711 -8.463893 0.120781 -6.985397 17.636627 -26.322725 52.41119 -19.46666 -14.395598 29.410385 -1e-06 -8.774822 -3e-06 15.49711 -18.286978 6.394804 -0.609777 -1.795654 -3.889325 -4.80709 -11.046807 -2.93785 4e-06 -20.976015 -0.0 -5.01997 -25.033556 -4.031879 7e-06 -1e-06 1e-06 -10.634533 -5.68697 -3.565586 10.573275 -17.922947 -3.113902 3e-06 -13.821206 2e-06 -0.501775 -31.181501 -4.02702 -11.901494 -58.893253 7.497811 -13.982712 -7.150198 -2.875041 13.772732 -8.401489 -3.218243 0.347735 -34.211544 0.771654 -0.963029 -17.733366 2.62102 0.0 1e-06 -1e-06 -17.346413 -20.095211 -4.201781 21.757555 -1.638376 3.866428 3e-06 -6.338821 -0.0 -1.697591 -22.59174 -6.194006 2e-06 -5e-06 -2e-06 57.276428 -76.716873 138.939102 32.224342 -51.274059 0.948072 58.193314 -0.140508 0.513489 -4.166902 -15.12028 -11.457644 22.182114 -20.375895 49.933319 -16.701815 -16.743526 28.47653 -2e-06 -12.6906 -1e-06 15.885804 -17.925709 3.011185 -0.105919 -1.513856 -4.275881 -5.039042 -5.612873 -2.953556 3e-06 -11.020527 -1e-06 -6.111297 -15.895334 -3.840472 1e-06 -3e-06 1e-06 -10.283368 -5.680288 -4.341836 11.028292 -11.302402 -2.372633 -1.384268 -14.238582 -6.32012 -0.625438 -26.924191 -3.8276 -4.07514 -50.174816 -3.888833 -13.708524 -7.363477 -3.720941 18.141148 -14.052739 -3.242672 7e-06 -18.787271 -0.0 -0.429713 -8.456043 2.555504 0.0 0.0 -2e-06 -15.923532 -20.094482 -5.473586 30.41921 -7.190827 1.735927 3e-06 -8.162931 1e-06 -1.861903 -22.861469 -6.167942 -0.0 -2e-06 1e-06 174.866867 -2.390259 -15.942321 18.521086 -0.003123 0.127261 -81.157333 3.905824 -0.940285 -5.485358 1.478462 2.125673 -0.999999 0.0 0.0 -3.797737 -7.235389 -6.63403 19.808725 -0.007513 0.167216 -83.991394 1.834291 -5.491601 -5.025995 0.785296 1.746212 -1.000002 0.0 -0.0 
0.0 0.0 0.0 0.0 -0.0 0.0 -2.040872 99.408386 -1.13974 91.748672 0.641254 90.191391 -5.142679 0.588552 -0.153886 -12.705261 -0.334728 0.363765 18.852268 -1.957547 -2.515927 16.518602 -0.498998 2.348304 -2.590516 -0.765077 -2.698948 -25.742531 1.33125 -5.915055 6e-06 0.0 -0.0 -0.040651 0.011513 0.036628 0.057927 0.047798 0.058873 0.030469 -0.026193 0.017627 -127.980232 -69.306213 143.769791 36.293919 -48.846153 -9.196149 66.324928 0.495556 0.20263 -8.682103 0.992196 -10.3156 17.636625 -26.32272 52.411179 -19.466654 -14.395597 29.410378 -0.0 -8.774822 -2e-06 15.623617 -18.19216 6.426789 -0.609775 -1.795653 -3.889327 -4.80709 -11.046809 -2.937849 4e-06 -20.976011 0.0 -5.01997 -25.033554 -4.031881 3e-06 2e-06 -2e-06 -10.634535 -5.68697 -3.565585 10.573273 -17.922945 -3.113901 2e-06 -13.821206 1e-06 -0.501778 -31.181488 -4.027016 -12.019851 -58.867073 7.683555 -13.982715 -7.150198 -2.87504 13.77273 -8.401489 -3.218242 0.347732 -34.21154 0.771653 -0.963029 -17.733366 2.621018 -0.0 -0.0 -1e-06 -17.346416 -20.095213 -4.201782 21.757557 -1.638374 3.866428 2e-06 -6.338822 -0.0 -1.697589 -22.591738 -6.194006 -1e-06 -5e-06 -2e-06 56.249973 -77.226242 139.645279 31.153835 -48.524208 -1.897664 61.259392 -0.04944 0.738396 -4.413449 -13.93431 -11.563951 22.182106 -20.375887 49.933308 -16.701811 -16.743526 28.476522 -1e-06 -12.690599 -1e-06 15.560172 -17.729832 3.127031 -0.105923 -1.513857 -4.275879 -5.039042 -5.612872 -2.953555 4e-06 -11.020523 -2e-06 -6.111295 -15.895329 -3.840471 1e-06 -1e-06 -1e-06 -10.283371 -5.680287 -4.341839 11.028294 -11.302404 -2.372633 -1.384269 -14.238572 -6.320119 -0.625436 -26.924187 -3.8276 -4.06515 -49.899277 -3.817838 -13.708525 -7.363476 -3.72094 18.141146 -14.052736 -3.242674 5e-06 -18.787266 -3e-06 -0.429711 -8.456041 2.555501 1e-06 0.0 1e-06 -15.923534 -20.094482 -5.473585 30.419205 -7.190823 1.735925 3e-06 -8.162922 -1e-06 -1.861902 -22.861464 -6.167941 1e-06 -3e-06 1e-06 174.838074 -2.361455 -16.05216 18.661949 -0.016638 0.125211 -81.193703 4.121093 -0.735939 -5.557257 1.486832 2.126537 -0.999998 -0.0 -0.0 -3.751832 -7.307592 -6.674051 19.869396 0.004475 0.186696 -84.008209 1.87558 -5.630455 -5.091639 0.795753 1.746521 -1.000002 0.0 -0.0 
0.0 0.0 0.0 0.0 -0.0 0.0 -1.953246 99.392456 -1.202905 91.752243 0.710872 90.340599 -5.239905 0.540087 -0.165948 -12.769221 -0.331957 0.365995 18.827187 -1.945112 -2.5639 16.731043 -0.341205 2.321437 -2.57987 -0.798192 -2.450121 -25.193241 1.46019 -5.865359 6e-06 -0.0 0.0 -0.040036 0.011119 0.039175 0.05943 0.046636 0.066778 0.035333 -0.02642 0.014799 -128.162018 -70.016151 143.578262 38.92815 -47.682411 -15.974331 68.444016 0.085272 0.046131 -8.930429 1.704362 -14.23276 17.636625 -26.322733 52.411182 -19.46666 -14.395596 29.410381 -1e-06 -8.774819 -3e-06 15.743539 -18.072874 6.451593 -0.609778 -1.795653 -3.889327 -4.807086 -11.046809 -2.937849 3e-06 -20.976017 2e-06 -5.019972 -25.033552 -4.031878 6e-06 -0.0 -0.0 -10.634533 -5.68697 -3.565587 10.573272 -17.922947 -3.1139 2e-06 -13.821211 2e-06 -0.501781 -31.181501 -4.027014 -12.059844 -58.801666 7.82131 -13.982712 -7.150197 -2.875041 13.772728 -8.40149 -3.21824 0.34773 -34.211552 0.77166 -0.963029 -17.73337 2.621021 -0.0 -1e-06 -1e-06 -17.346416 -20.095213 -4.20178 21.757557 -1.638372 3.866428 1e-06 -6.338824 1e-06 -1.69759 -22.591745 -6.194006 -1e-06 -4e-06 -2e-06 54.944729 -77.800446 140.552902 30.474586 -45.505989 -5.508524 63.325832 -0.005919 0.940177 -4.650698 -12.915134 -11.339576 22.182117 -20.375898 49.933319 -16.701813 -16.743534 28.476532 -4e-06 -12.690599 -2e-06 15.259771 -17.577414 3.215839 -0.10592 -1.513856 -4.27588 -5.039041 -5.612871 -2.953556 4e-06 -11.020524 -1e-06 -6.111298 -15.895329 -3.84047 1e-06 -2e-06 1e-06 -10.283369 -5.680287 -4.341837 11.028292 -11.302406 -2.372632 -1.384269 -14.238579 -6.320121 -0.62544 -26.924185 -3.827603 -4.084804 -49.597836 -3.732954 -13.708527 -7.363475 -3.720939 18.141148 -14.05274 -3.242673 6e-06 -18.787266 -1e-06 -0.429711 -8.456044 2.555503 1e-06 -1e-06 -1e-06 -15.923539 -20.094482 -5.473581 30.419214 -7.190825 1.735927 4e-06 -8.162926 -1e-06 -1.861903 -22.861473 -6.167941 0.0 -4e-06 -0.0 174.782639 -2.32757 -16.112556 18.817154 -0.030053 0.118743 -81.229607 4.286608 -0.538266 -5.594362 1.478185 2.125213 -0.999999 0.0 0.0 -3.713401 -7.373629 -6.703266 19.930275 0.011293 0.205281 -84.024109 1.869938 -5.73215 -5.164405 0.788375 1.740574 -1.000002 -0.0 -0.0 
